<svg width="232" height="232" viewBox="0 0 232 232" fill="none" xmlns="http://www.w3.org/2000/svg">
<path d="M232 116C232 180.065 180.065 232 116 232C51.935 232 0 180.065 0 116C0 51.935 51.935 0 116 0C180.065 0 232 51.935 232 116Z" fill="url(#paint0_linear_6_4)"/>
<path d="M177.975 70.3772C181.263 73.1848 182.946 77.1814 182.946 81.2099C182.946 84.4505 181.845 87.7195 179.598 90.3922L154.363 120.278L179.594 150.164C184.64 156.137 183.916 165.099 177.975 170.179C172.026 175.254 163.127 174.523 158.074 168.546L125.081 129.467C120.603 124.168 120.603 116.384 125.081 111.089L158.074 72.0064C163.127 66.0292 172.029 65.3016 177.975 70.3772Z" fill="white"/>
<path d="M54.9653 70.6577C51.6845 73.4588 50.0053 77.446 50.0053 81.4652C50.0053 84.6982 51.1036 87.9595 53.346 90.626L78.523 120.442L53.3495 150.258C48.3156 156.218 49.0372 165.159 54.9653 170.226C60.9005 175.29 69.7786 174.561 74.8196 168.597L107.738 129.61C112.205 124.323 112.205 116.557 107.738 111.274L74.8196 72.2831C69.7786 66.3199 60.897 65.594 54.9653 70.6577Z" fill="white"/>
<defs>
<linearGradient id="paint0_linear_6_4" x1="-19.5" y1="11" x2="199" y2="165" gradientUnits="userSpaceOnUse">
<stop stop-color="#7DB8FF"/>
<stop offset="0.653976" stop-color="#0060CC"/>
<stop offset="1" stop-color="#0080FF"/>
</linearGradient>
</defs>
</svg>
